<svg width="18" height="18" viewBox="0 0 18 18" fill="none" xmlns="http://www.w3.org/2000/svg">
<path d="M18 14.75C18 15.612 17.6576 16.4386 17.0481 17.0481C16.4386 17.6576 15.612 18 14.75 18H3.25C2.38805 18 1.5614 17.6576 0.951903 17.0481C0.34241 16.4386 0 15.612 0 14.75V3.25C0 2.38805 0.34241 1.5614 0.951903 0.951903C1.5614 0.34241 2.38805 0 3.25 0H14.75C15.612 0 16.4386 0.34241 17.0481 0.951903C17.6576 1.5614 18 2.38805 18 3.25V14.75ZM16.5 14.75V3.25C16.5 2.78587 16.3156 2.34075 15.9874 2.01256C15.6592 1.68437 15.2141 1.5 14.75 1.5H3.25C2.78587 1.5 2.34075 1.68437 2.01256 2.01256C1.68437 2.34075 1.5 2.78587 1.5 3.25V14.75C1.5 15.716 2.284 16.5 3.25 16.5H14.75C15.2141 16.5 15.6592 16.3156 15.9874 15.9874C16.3156 15.6592 16.5 15.2141 16.5 14.75ZM14 4.75C14 4.93124 13.9344 5.10634 13.8152 5.24293C13.6961 5.37952 13.5316 5.46835 13.352 5.493L13.25 5.5H4.75C4.55998 5.49994 4.37706 5.42776 4.23821 5.29803C4.09936 5.1683 4.01493 4.9907 4.00197 4.80112C3.98902 4.61154 4.04852 4.42411 4.16843 4.2767C4.28835 4.12929 4.45975 4.0329 4.648 4.007L4.75 4H13.25C13.4489 4 13.6397 4.07902 13.7803 4.21967C13.921 4.36032 14 4.55109 14 4.75ZM14 13.25C14 13.4312 13.9344 13.6063 13.8152 13.7429C13.6961 13.8795 13.5316 13.9684 13.352 13.993L13.25 14H4.75C4.55998 13.9999 4.37706 13.9278 4.23821 13.798C4.09936 13.6683 4.01493 13.4907 4.00197 13.3011C3.98902 13.1115 4.04852 12.9241 4.16843 12.7767C4.28835 12.6293 4.45975 12.5329 4.648 12.507L4.75 12.5H13.25C13.4489 12.5 13.6397 12.579 13.7803 12.7197C13.921 12.8603 14 13.0511 14 13.25ZM14 9C14 9.18124 13.9344 9.35634 13.8152 9.49293C13.6961 9.62952 13.5316 9.71835 13.352 9.743L13.25 9.75H4.75C4.55998 9.74994 4.37706 9.67776 4.23821 9.54803C4.09936 9.4183 4.01493 9.2407 4.00197 9.05112C3.98902 8.86154 4.04852 8.67411 4.16843 8.5267C4.28835 8.37929 4.45975 8.2829 4.648 8.257L4.75 8.25H13.25C13.4489 8.25 13.6397 8.32902 13.7803 8.46967C13.921 8.61032 14 8.80109 14 9Z" fill="black"/>
</svg>
