<svg width="19" height="21" viewBox="0 0 19 21" fill="none" xmlns="http://www.w3.org/2000/svg">
<path d="M18.5464 7.2195L9.77351 0.425758C9.65343 0.33291 9.50563 0.2831 9.35385 0.284324C9.20206 0.285548 9.05508 0.337735 8.93651 0.432508L0.444204 7.22598C0.365116 7.28942 0.301279 7.36981 0.2574 7.46122C0.21352 7.55262 0.190718 7.65271 0.190674 7.7541V20.0391C0.190638 20.1279 0.208109 20.2159 0.242086 20.298C0.276063 20.38 0.325881 20.4546 0.388693 20.5174C0.451505 20.5802 0.526079 20.6301 0.608154 20.664C0.690229 20.698 0.778194 20.7155 0.867024 20.7154H5.91521C6.09457 20.7154 6.26656 20.6441 6.39339 20.5173C6.52021 20.3904 6.59149 20.2185 6.59156 20.0391V12.5172H12.4074V20.0391C12.4074 20.2185 12.4786 20.3905 12.6055 20.5174C12.7323 20.6442 12.9043 20.7154 13.0837 20.7154H18.1327C18.3121 20.7154 18.4841 20.6441 18.6109 20.5173C18.7377 20.3904 18.809 20.2185 18.8091 20.0391V7.7541C18.8091 7.65082 18.7855 7.54891 18.7399 7.45622C18.6944 7.36354 18.6281 7.28255 18.5464 7.2195Z" fill="#2F8ADD"/>
</svg>
