<svg width="18" height="18" viewBox="0 0 18 18" fill="none" xmlns="http://www.w3.org/2000/svg">
<path fill-rule="evenodd" clip-rule="evenodd" d="M1.125 4.5V15.75C1.125 16.0484 1.24353 16.3345 1.4545 16.5455C1.66548 16.7565 1.95163 16.875 2.25 16.875H15.75C16.0484 16.875 16.3345 16.7565 16.5455 16.5455C16.7565 16.3345 16.875 16.0484 16.875 15.75V4.5H1.125ZM2.25 1.125C1.65326 1.125 1.08097 1.36205 0.65901 1.78401C0.237053 2.20597 0 2.77826 0 3.375L0 15.75C0 16.3467 0.237053 16.919 0.65901 17.341C1.08097 17.7629 1.65326 18 2.25 18H15.75C16.3467 18 16.919 17.7629 17.341 17.341C17.7629 16.919 18 16.3467 18 15.75V3.375C18 2.77826 17.7629 2.20597 17.341 1.78401C16.919 1.36205 16.3467 1.125 15.75 1.125H2.25Z" fill="black"/>
<path fill-rule="evenodd" clip-rule="evenodd" d="M3.9375 0C4.08668 0 4.22976 0.0592632 4.33525 0.164752C4.44074 0.270242 4.5 0.413316 4.5 0.5625V1.125C4.5 1.27418 4.44074 1.41726 4.33525 1.52275C4.22976 1.62824 4.08668 1.6875 3.9375 1.6875C3.78832 1.6875 3.64524 1.62824 3.53975 1.52275C3.43426 1.41726 3.375 1.27418 3.375 1.125V0.5625C3.375 0.413316 3.43426 0.270242 3.53975 0.164752C3.64524 0.0592632 3.78832 0 3.9375 0V0ZM14.0625 0C14.2117 0 14.3548 0.0592632 14.4602 0.164752C14.5657 0.270242 14.625 0.413316 14.625 0.5625V1.125C14.625 1.27418 14.5657 1.41726 14.4602 1.52275C14.3548 1.62824 14.2117 1.6875 14.0625 1.6875C13.9133 1.6875 13.7702 1.62824 13.6648 1.52275C13.5593 1.41726 13.5 1.27418 13.5 1.125V0.5625C13.5 0.413316 13.5593 0.270242 13.6648 0.164752C13.7702 0.0592632 13.9133 0 14.0625 0V0Z" fill="black"/>
</svg>
